# 3ds Max Wavefront OBJ Exporter v0.97b - (c)2007 guruware
# File Created: 06.04.2013 22:33:51

#
# object 20269_Great_rhombicosidodecahedron
#

v  0.7526 1.8947 0.0001
v  -0.7526 1.8947 0.0001
v  -0.7526 3.1709 0.7888
v  0.7526 3.1709 0.7888
v  -2.0346 4.0765 2.6000
v  -1.5694 3.4363 1.3196
v  -2.7831 2.5545 1.3196
v  -3.2483 3.1947 2.6000
v  -0.5048 4.9016 4.2502
v  -1.7226 4.5059 3.4589
v  -2.4727 4.2622 4.7350
v  -1.2549 4.6579 5.5264
v  1.7226 4.5059 3.4589
v  0.5048 4.9016 4.2502
v  1.2549 4.6579 5.5264
v  2.4727 4.2622 4.7350
v  1.5694 3.4363 1.3196
v  2.0346 4.0765 2.6000
v  3.2483 3.1947 2.6000
v  2.7831 2.5545 1.3196
v  2.0346 -0.1303 0.0001
v  1.5694 1.3013 0.0001
v  2.7831 1.6956 0.7888
v  3.2483 0.2641 0.7888
v  0.5048 -1.9752 0.0001
v  1.7226 -1.0905 0.0001
v  2.4727 -2.1229 0.7888
v  1.2549 -3.0077 0.7888
v  -1.7226 -1.0905 0.0001
v  -0.5048 -1.9752 0.0001
v  -1.2549 -3.0077 0.7888
v  -2.4727 -2.1229 0.7888
v  -1.5694 1.3013 0.0001
v  -2.0346 -0.1303 0.0001
v  -3.2483 0.2641 0.7888
v  -2.7831 1.6956 0.7888
v  -4.0421 2.6329 5.5264
v  -3.2895 3.6688 4.7350
v  -3.7531 3.0307 3.4589
v  -4.5057 1.9948 4.2502
v  -4.8177 -1.0346 4.7350
v  -4.8177 0.2459 5.5264
v  -4.8177 1.0346 4.2502
v  -4.8177 -0.2458 3.4589
v  -3.2895 -1.8575 1.3196
v  -4.0421 -2.1021 2.6000
v  -4.5057 -0.6753 2.6000
v  -3.7531 -0.4307 1.3196
v  -0.7501 -4.4939 2.6000
v  -0.7501 -3.7025 1.3196
v  0.7501 -3.7025 1.3196
v  0.7501 -4.4939 2.6000
v  -2.4727 -4.2622 4.2502
v  -1.2549 -4.6579 3.4589
v  -0.5048 -4.9016 4.7350
v  -1.7226 -4.5059 5.5264
v  -4.0421 -2.6329 3.4589
v  -3.2895 -3.6688 4.2502
v  -3.7531 -3.0307 5.5264
v  -4.5057 -1.9948 4.7350
v  -3.2895 1.8576 7.6657
v  -4.0421 2.1021 6.3852
v  -4.5057 0.6753 6.3852
v  -3.7531 0.4307 7.6657
v  -1.5694 -1.3013 8.9852
v  -2.0346 0.1303 8.9852
v  -3.2483 -0.2641 8.1964
v  -2.7831 -1.6956 8.1964
v  -2.0346 -4.0765 6.3852
v  -1.5694 -3.4363 7.6657
v  -2.7831 -2.5545 7.6657
v  -3.2483 -3.1947 6.3852
v  1.7226 -4.5059 5.5264
v  0.5048 -4.9016 4.7350
v  1.2549 -4.6579 3.4589
v  2.4727 -4.2622 4.2502
v  1.5694 -3.4363 7.6657
v  2.0346 -4.0765 6.3852
v  3.2483 -3.1947 6.3852
v  2.7831 -2.5545 7.6657
v  -0.7526 -3.1709 8.1964
v  0.7526 -3.1709 8.1965
v  0.7526 -1.8947 8.9852
v  -0.7526 -1.8947 8.9852
v  -1.2549 3.0077 8.1964
v  -2.4727 2.1229 8.1964
v  -1.7226 1.0905 8.9852
v  -0.5048 1.9752 8.9852
v  2.4727 2.1229 8.1964
v  1.2549 3.0077 8.1964
v  0.5048 1.9752 8.9852
v  1.7226 1.0905 8.9852
v  2.7831 -1.6956 8.1965
v  3.2483 -0.2641 8.1965
v  2.0346 0.1303 8.9852
v  1.5694 -1.3013 8.9852
v  4.5057 -1.9948 4.7351
v  3.7531 -3.0307 5.5264
v  3.2895 -3.6688 4.2502
v  4.0421 -2.6329 3.4589
v  4.8177 0.2458 5.5264
v  4.8177 -1.0346 4.7350
v  4.8177 -0.2459 3.4589
v  4.8177 1.0346 4.2502
v  3.7531 0.4307 7.6657
v  4.5057 0.6753 6.3852
v  4.0421 2.1021 6.3852
v  3.2895 1.8576 7.6657
v  -0.7501 4.4939 6.3852
v  -0.7501 3.7025 7.6657
v  0.7501 3.7025 7.6657
v  0.7501 4.4939 6.3852
v  4.5057 1.9948 4.2502
v  3.7531 3.0307 3.4589
v  3.2895 3.6688 4.7350
v  4.0421 2.6329 5.5264
v  3.7531 -0.4307 1.3196
v  4.5057 -0.6753 2.6000
v  4.0421 -2.1021 2.6000
v  3.2895 -1.8576 1.3196
# 120 vertices

vn 0.0000 0.5257 -0.8507
vn -0.5000 0.6882 -0.5257
vn -0.3090 0.9511 -0.0000
vn 0.3090 0.9511 -0.0000
vn 0.5000 0.6882 -0.5257
vn 0.5000 0.1625 -0.8507
vn 0.3090 -0.4253 -0.8507
vn -0.3090 -0.4253 -0.8507
vn -0.5000 0.1625 -0.8507
vn -0.8090 0.5878 -0.0000
vn -1.0000 0.0000 -0.0000
vn -0.8090 -0.2629 -0.5257
vn -0.0000 -0.8507 -0.5257
vn -0.3090 -0.9511 0.0000
vn -0.8090 -0.5878 -0.0000
vn -0.8090 0.2629 0.5257
vn -0.5000 -0.1625 0.8507
vn -0.5000 -0.6882 0.5257
vn 0.3090 -0.9511 0.0000
vn 0.5000 -0.6882 0.5257
vn -0.0000 -0.5257 0.8507
vn -0.3090 0.4253 0.8507
vn 0.3090 0.4253 0.8507
vn 0.5000 -0.1625 0.8507
vn 0.8090 -0.5878 0.0000
vn 1.0000 -0.0000 0.0000
vn 0.8090 0.2629 0.5257
vn 0.0000 0.8507 0.5257
vn 0.8090 0.5878 0.0000
vn 0.8090 -0.2629 -0.5257
vn -0.3568 0.4911 -0.7947
vn -0.5773 0.7947 -0.1876
vn 0.0000 0.9822 0.1876
vn 0.5774 0.7947 -0.1876
vn 0.3568 0.4911 -0.7947
vn 0.5774 -0.1876 -0.7947
vn -0.0000 -0.6071 -0.7947
vn -0.5774 -0.1876 -0.7947
vn -0.9342 0.3035 0.1876
vn -0.9342 -0.3035 -0.1876
vn -0.0000 -0.9822 -0.1876
vn -0.5774 -0.7947 0.1876
vn -0.5774 0.1876 0.7947
vn -0.3568 -0.4911 0.7947
vn 0.5773 -0.7947 0.1876
vn 0.3568 -0.4911 0.7947
vn 0.0000 0.6071 0.7947
vn 0.5774 0.1876 0.7947
vn 0.9342 -0.3035 -0.1876
vn 0.9342 0.3035 0.1876
vn 0.0000 0.8944 -0.4472
vn 0.0000 -0.0000 -1.0000
vn -0.8507 0.2764 -0.4472
vn -0.5257 -0.7236 -0.4472
vn -0.8507 -0.2764 0.4472
vn -0.0000 -0.8944 0.4472
vn -0.0000 0.0000 1.0000
vn 0.8507 -0.2764 0.4472
vn 0.5257 0.7236 0.4472
vn 0.8507 0.2764 -0.4472
vn 0.5257 -0.7236 -0.4472
vn -0.5257 0.7236 0.4472
# 62 vertex normals

vt -0.0781 -0.0779 0.5000
vt 0.0781 -0.0779 0.5000
vt 0.0781 0.0779 0.5000
vt -0.0781 0.0779 0.5000
vt 0.2112 0.2566 0.3895
vt 0.1629 0.1302 0.4676
vt 0.2888 0.0524 0.4195
vt 0.3371 0.1788 0.3414
vt 0.3371 -0.1788 0.3414
vt 0.2888 -0.0524 0.4195
vt 0.1629 -0.1302 0.4676
vt 0.2112 -0.2566 0.3895
vt -0.1629 0.1302 0.4676
vt -0.2112 0.2566 0.3895
vt -0.3371 0.1788 0.3414
vt -0.2888 0.0524 0.4195
vt -0.2112 -0.2566 0.3895
vt -0.1629 -0.1302 0.4676
vt -0.2888 -0.0524 0.4195
vt -0.3371 -0.1788 0.3414
vt 0.2888 -0.0524 -0.4195
vt 0.3371 -0.1788 -0.3414
vt 0.2112 -0.2566 -0.3895
vt 0.1629 -0.1302 -0.4676
vt 0.3371 0.1788 -0.3414
vt 0.2888 0.0524 -0.4195
vt 0.1629 0.1302 -0.4676
vt 0.2112 0.2566 -0.3895
vt -0.0781 0.0779 -0.5000
vt 0.0781 0.0779 -0.5000
vt 0.0781 -0.0779 -0.5000
vt -0.0781 -0.0779 -0.5000
vt -0.2112 0.2566 -0.3895
vt -0.1629 0.1302 -0.4676
vt -0.2888 0.0524 -0.4195
vt -0.3371 0.1788 -0.3414
vt -0.3371 -0.1788 -0.3414
vt -0.2888 -0.0524 -0.4195
vt -0.1629 -0.1302 -0.4676
vt -0.2112 -0.2566 -0.3895
vt 0.3414 0.3371 0.1788
vt 0.2566 0.3895 0.2112
vt 0.1788 0.3414 0.3371
vt 0.3895 0.2112 0.2566
vt -0.1788 0.3414 0.3371
vt -0.2566 0.3895 0.2112
vt -0.3414 0.3371 -0.1788
vt -0.2566 0.3895 -0.2112
vt -0.1788 0.3414 -0.3371
vt -0.3895 0.2112 -0.2566
vt 0.1788 -0.3414 0.3371
vt 0.2566 -0.3895 0.2112
vt 0.3414 -0.3371 -0.1788
vt 0.2566 -0.3895 -0.2112
vt 0.1788 -0.3414 -0.3371
vt 0.3895 -0.2112 -0.2566
vt -0.3414 0.3371 0.1788
vt -0.1788 -0.3414 -0.3371
vt -0.2566 -0.3895 -0.2112
vt 0.0524 0.4195 0.2888
vt -0.0524 0.4195 0.2888
vt 0.0524 0.4195 -0.2888
vt 0.1788 0.3414 -0.3371
vt -0.0524 -0.4195 -0.2888
vt 0.0524 -0.4195 -0.2888
vt -0.1788 -0.3414 0.3371
vt -0.0524 -0.4195 0.2888
vt 0.0524 -0.4195 0.2888
vt -0.0524 0.4195 -0.2888
vt -0.3895 0.2112 0.2566
vt 0.3895 -0.2112 0.2566
vt 0.3414 -0.3371 0.1788
vt -0.3895 -0.2112 -0.2566
vt -0.3414 -0.3371 -0.1788
# 74 texture coords

g 20269_Great_rhombicosidodecahedron
s off
f 1/1/1 2/2/1 3/3/1 4/4/1 
f 5/5/2 6/6/2 7/7/2 8/8/2 
f 9/7/3 10/8/3 11/5/3 12/6/3 
f 13/9/4 14/10/4 15/11/4 16/12/4 
f 17/13/5 18/14/5 19/15/5 20/16/5 
f 21/17/6 22/18/6 23/19/6 24/20/6 
f 25/21/7 26/22/7 27/23/7 28/24/7 
f 29/25/8 30/26/8 31/27/8 32/28/8 
f 33/11/9 34/12/9 35/9/9 36/10/9 
f 37/7/10 38/8/10 39/5/10 40/6/10 
f 41/1/11 42/2/11 43/3/11 44/4/11 
f 45/15/12 46/16/12 47/13/12 48/14/12 
f 49/29/13 50/30/13 51/31/13 52/32/13 
f 53/33/14 54/34/14 55/35/14 56/36/14 
f 57/19/15 58/20/15 59/17/15 60/18/15 
f 61/9/16 62/10/16 63/11/16 64/12/16 
f 65/27/17 66/28/17 67/25/17 68/26/17 
f 69/23/18 70/24/18 71/21/18 72/22/18 
f 73/37/19 74/38/19 75/39/19 76/40/19 
f 77/39/20 78/40/20 79/37/20 80/38/20 
f 81/31/21 82/32/21 83/29/21 84/30/21 
f 85/13/22 86/14/22 87/15/22 88/16/22 
f 89/17/23 90/18/23 91/19/23 92/20/23 
f 93/35/24 94/36/24 95/33/24 96/34/24 
f 97/39/25 98/40/25 99/37/25 100/38/25 
f 101/31/26 102/32/26 103/29/26 104/30/26 
f 105/23/27 106/24/27 107/21/27 108/22/27 
f 109/3/28 110/4/28 111/1/28 112/2/28 
f 113/27/29 114/28/29 115/25/29 116/26/29 
f 117/33/30 118/34/30 119/35/30 120/36/30 
f 33/11/31 6/6/31 3/3/31 2/2/31 
f 10/41/32 5/42/32 8/43/32 11/44/32 
f 14/10/33 9/7/33 12/6/33 15/11/33 
f 18/14/34 13/45/34 16/46/34 19/15/34 
f 23/19/35 22/18/35 17/13/35 20/16/35 
f 26/47/36 21/48/36 24/49/36 27/50/36 
f 30/26/37 25/21/37 28/24/37 31/27/37 
f 34/12/38 29/51/38 32/52/38 35/9/38 
f 43/3/39 42/2/39 37/7/39 40/6/39 
f 60/18/40 41/1/40 44/4/40 57/19/40 
f 75/39/41 54/34/41 49/29/41 52/32/41 
f 58/53/42 53/54/42 56/55/42 59/56/42 
f 67/57/43 86/14/43 61/45/43 64/46/43 
f 71/21/44 70/24/44 65/27/44 68/26/44 
f 78/40/45 73/58/45 76/59/45 79/37/45 
f 93/35/46 96/34/46 77/39/46 80/38/46 
f 91/19/47 90/18/47 85/13/47 88/16/47 
f 108/47/48 89/48/48 92/49/48 105/50/48 
f 102/32/49 97/39/49 100/38/49 103/29/49 
f 106/24/50 101/31/50 104/30/50 107/21/50 
f 6/6/51 17/13/51 4/4/51 3/3/51 
f 22/18/52 33/11/52 2/2/52 1/1/52 
f 7/60/53 36/61/53 35/45/53 8/43/53 
f 50/30/54 49/29/54 46/62/54 45/63/54 
f 64/12/55 63/11/55 60/18/55 59/17/55 
f 78/40/56 77/39/56 70/24/56 69/23/56 
f 96/34/57 65/27/57 84/30/57 83/29/57 
f 80/64/58 79/58/58 94/55/58 93/65/58 
f 89/17/59 108/66/59 107/67/59 90/18/59 
f 118/34/60 117/33/60 114/28/60 113/27/60 
f 52/32/61 51/31/61 120/55/61 119/65/61 
f 38/43/62 37/60/62 110/4/62 109/3/62 
f 48/14/53 39/5/53 8/43/53 35/45/53 
f 47/13/53 40/6/53 39/5/53 48/14/53 
f 44/4/53 43/3/53 40/6/53 47/13/53 
f 11/5/62 38/43/62 109/3/62 12/6/62 
f 62/61/62 85/13/62 110/4/62 37/60/62 
f 61/45/62 86/14/62 85/13/62 62/61/62 
f 116/68/59 111/1/59 90/18/59 107/67/59 
f 115/51/59 112/2/59 111/1/59 116/68/59 
f 16/12/59 15/11/59 112/2/59 115/51/59 
f 23/69/60 20/62/60 19/63/60 24/49/60 
f 24/49/60 19/63/60 114/28/60 117/33/60 
f 104/30/60 103/29/60 118/34/60 113/27/60 
f 28/24/61 27/23/61 120/55/61 51/31/61 
f 100/64/61 75/39/61 52/32/61 119/65/61 
f 99/58/61 76/40/61 75/39/61 100/64/61 
f 31/27/54 50/30/54 45/63/54 32/28/54 
f 54/34/54 57/69/54 46/62/54 49/29/54 
f 53/33/54 58/49/54 57/69/54 54/34/54 
f 63/11/39 62/10/39 37/7/39 42/2/39 
f 46/16/40 57/19/40 44/4/40 47/13/40 
f 42/2/55 41/1/55 60/18/55 63/11/55 
f 72/66/55 67/51/55 64/12/55 59/17/55 
f 71/67/55 68/68/55 67/51/55 72/66/55 
f 72/22/42 59/56/42 56/55/42 69/23/42 
f 81/31/44 84/30/44 65/27/44 70/24/44 
f 66/70/43 87/15/43 86/14/43 67/57/43 
f 91/69/57 88/62/57 87/63/57 92/49/57 
f 92/49/57 87/63/57 66/28/57 95/33/57 
f 95/33/57 66/28/57 65/27/57 96/34/57 
f 111/1/47 110/4/47 85/13/47 90/18/47 
f 112/2/33 15/11/33 12/6/33 109/3/33 
f 114/70/34 19/15/34 16/46/34 115/57/34 
f 116/26/50 107/21/50 104/30/50 113/27/50 
f 1/1/35 4/4/35 17/13/35 22/18/35 
f 118/34/49 103/29/49 100/38/49 119/35/49 
f 120/36/36 27/50/36 24/49/36 117/33/36 
f 50/30/37 31/27/37 28/24/37 51/31/37 
f 74/38/41 55/35/41 54/34/41 75/39/41 
f 48/71/38 35/9/38 32/52/38 45/72/38 
f 36/10/31 7/7/31 6/6/31 33/11/31 
f 38/8/32 11/44/32 8/43/32 39/5/32 
f 9/60/51 14/61/51 13/45/51 10/43/51 
f 10/43/51 13/45/51 18/14/51 5/5/51 
f 5/5/51 18/14/51 17/13/51 6/6/51 
f 21/17/52 34/12/52 33/11/52 22/18/52 
f 26/66/52 29/51/52 34/12/52 21/17/52 
f 25/67/52 30/68/52 29/51/52 26/66/52 
f 94/36/48 105/50/48 92/49/48 95/33/48 
f 83/29/46 82/32/46 77/39/46 96/34/46 
f 98/73/45 79/37/45 76/59/45 99/74/45 
f 98/40/58 105/23/58 94/55/58 79/58/58 
f 97/39/58 106/24/58 105/23/58 98/40/58 
f 102/32/58 101/31/58 106/24/58 97/39/58 
f 55/65/56 74/64/56 73/58/56 56/55/56 
f 56/55/56 73/58/56 78/40/56 69/23/56 
f 82/32/56 81/31/56 70/24/56 77/39/56 
# 118 polygons

